<svg xmlns="http://www.w3.org/2000/svg" viewBox="0 0 28 28" x="0px" y="0px" style="max-width:100%" height="100%"><title style="" fill="currentColor">icon_916Artboard 1</title><g style="" fill="currentColor"><path d="M24.222,10.708c0,1.1-1.1,3.172-5.049,4.4a4.555,4.555,0,0,0-3.255,5.125,8.91,8.91,0,0,1,5.476-3.1c-3.258,1.207-6.3,5.872-6.3,5.872a9.424,9.424,0,0,0-6.279-6.279c2.654-.129,5.243,2.46,5.243,2.46,1.554-5.89-4.4-7.315-7.25-8.221A5.146,5.146,0,0,1,3.444,7.212C1.7,11.225,1.761,17.44,5.256,19.964s7.509.647,7.509.647c1.812,1.618,1.812,5.308,1.812,5.308h1.1c.13-2.783,1.165-3.884,1.165-3.884,2.961,1.588,6.344-.971,6.344-.971C28.111,17.291,24.222,10.708,24.222,10.708Z" style="" fill="currentColor"></path><path d="M16.561,13.424A3.976,3.976,0,0,0,20.535,9.44c0-2.2-3.974-7.359-3.974-7.359s-3.984,5.16-3.984,7.359A3.985,3.985,0,0,0,16.561,13.424Zm.415-3.154a4.177,4.177,0,0,0,1.437-3.357s1.534,2.44.193,4.427a.8.8,0,0,1-.154.193,1.084,1.084,0,0,1-.849.415.938.938,0,0,1-.907-1.032.914.914,0,0,1,.289-.627A.033.033,0,0,0,16.976,10.27Zm-1.3-4.08a.68.68,0,0,1,.678.678.672.672,0,0,1-.678.678A.68.68,0,0,1,15,6.868.689.689,0,0,1,15.677,6.19Z" style="" fill="currentColor"></path></g></svg>